inDegrees=no
num_controls=7
num_derivatives=13
num_iterations=644
num_multipliers=7
num_parameters=0
num_slacks=7
num_states=26
objective=0.325040
objective_accelerations=0.000000
objective_balance=0.001443
objective_effort=0.093177
objective_height=0.174948
objective_ligament=0.055472
solver_duration=7193.688107
status=Solve_Succeeded
success=true
DataType=double
version=3
OpenSimVersion=4.5
endheader
time	/jointset/ground_pelvis/pelvis_tilt/value	/jointset/ground_pelvis/pelvis_tx/value	/jointset/ground_pelvis/pelvis_ty/value	/jointset/hip_r/hip_flexion_r/value	/jointset/hip_r/hip_adduction_r/value	/jointset/hip_r/hip_rotation_r/value	/jointset/back/lumbar_extension/value	/jointset/patellofemoral_r/patellar_flexion_r/value	/jointset/knee_r/knee_flexion_r/value	/jointset/knee_r/knee_adduction_r/value	/jointset/knee_r/knee_rotation_r/value	/jointset/ankle_r/ankle_angle_r/value	/jointset/subtalar_r/subtalar_angle_r/value	/jointset/ground_pelvis/pelvis_tilt/speed	/jointset/ground_pelvis/pelvis_tx/speed	/jointset/ground_pelvis/pelvis_ty/speed	/jointset/hip_r/hip_flexion_r/speed	/jointset/hip_r/hip_adduction_r/speed	/jointset/hip_r/hip_rotation_r/speed	/jointset/back/lumbar_extension/speed	/jointset/patellofemoral_r/patellar_flexion_r/speed	/jointset/knee_r/knee_flexion_r/speed	/jointset/knee_r/knee_adduction_r/speed	/jointset/knee_r/knee_rotation_r/speed	/jointset/ankle_r/ankle_angle_r/speed	/jointset/subtalar_r/subtalar_angle_r/speed	/forceset/tau_hip_flexion_r	/forceset/tau_hip_adduction_r	/forceset/tau_hip_rotation_r	/forceset/tau_knee_flexion_r	/forceset/tau_ankle_angle_r	/forceset/tau_subtalar_angle_r	/forceset/tau_lumbar_extension	lambda_cid13_p0	lambda_cid14_p0	lambda_cid14_p1	lambda_cid14_p2	lambda_cid14_p3	lambda_cid14_p4	lambda_cid14_p5	/jointset/ground_pelvis/pelvis_tilt/accel	/jointset/ground_pelvis/pelvis_tx/accel	/jointset/ground_pelvis/pelvis_ty/accel	/jointset/hip_r/hip_flexion_r/accel	/jointset/hip_r/hip_adduction_r/accel	/jointset/hip_r/hip_rotation_r/accel	/jointset/back/lumbar_extension/accel	/jointset/patellofemoral_r/patellar_flexion_r/accel	/jointset/knee_r/knee_flexion_r/accel	/jointset/knee_r/knee_adduction_r/accel	/jointset/knee_r/knee_rotation_r/accel	/jointset/ankle_r/ankle_angle_r/accel	/jointset/subtalar_r/subtalar_angle_r/accel	gamma_cid13_p0	gamma_cid14_p0	gamma_cid14_p1	gamma_cid14_p2	gamma_cid14_p3	gamma_cid14_p4	gamma_cid14_p5
1.5	-0.2281526599865992	-0.0484077999245712	0.3594172523622154	2.181654580243752	-0.2229173280965532	0.1271406011890649	-0.7666941459870754	2.169360933794002	2.169360933794001	-0.1712955021762618	0.1745291202422854	0.3502051233146231	0.1568332167467246	-0.420980565741126	-0.01296948998342883	0.1172188913893418	-0.0008602422848640976	-0.1445103239156778	-0.1329999612098253	0.8384812739493985	-0.3837964437014382	-0.3837964437014785	0.1070648514937831	0.2286695445595081	0.01528976534743604	-0.2295630131298642	-0.4074401750559433	-0.04424538260401838	-0.03976872814102064	-0.608383086980536	0.1577031419631649	-0.01394413214401343	0.4681855867873875	-0.02206862667265546	-12.47192739164914	-11.36722860232269	5.806592529076083	-40.10414358182986	-939.5261667901193	122.4094184961245	-16.66010432608187	-0.09170209492362229	2.519450234008725	0.1111959643694767	18.54661126128817	-83.67594037087615	22.16964202992433	-7.271830708555198	-7.271830708556153	-87.13123699750315	-77.99738411147064	8.599364042417212	36.37840175293481	0.0001711578662818065	0.0001836955815375223	0.0001141417193483061	0.0001218381462676287	9.385876723955571e-05	-0.0001467933407976831	0.0008920847883405428
1.51	-0.2331522138450604	-0.04853877377928423	0.3607238151974992	2.181645863417253	-0.2236441700660556	0.1231195783147497	-0.7572412150677973	2.16511795765752	2.165117957657523	-0.173079660453497	0.1740689581182789	0.3507249315299501	0.1559491375465858	-0.5751665332553949	-0.01286212639686279	0.1448223677948124	-0.000650741971175242	-0.02221945754713062	-0.5229080845330523	1.048813534203776	-0.4688112338836095	-0.4688112338836558	-0.3130077336392961	-0.2068724127566074	0.08188349390394456	0.01117797560601962	-0.4193214844020701	-0.05224256650222992	-0.01536786787089013	-0.6202776634139286	0.1591175404735365	-0.02919397597181191	0.4764037390264388	-0.02331095017192352	-14.78034732129192	-20.60310767966335	9.802280059406563	-33.19266444701249	-956.8542548114303	101.0437990110111	-14.23527805788656	0.1137850298948851	2.991585379982216	0.009001047859481984	5.862776318216286	5.582696179436238	19.97131166782065	-9.712491942620407	-9.712491942620792	3.218534763274115	-9.288545817680419	4.674213113537655	11.6659604705033	3.945372120510703e-05	6.357753139484958e-05	-1.359227422693257e-05	-2.593628496288494e-06	2.318763920253397e-05	-4.500851958283298e-05	-4.015276488717107e-05
1.52	-0.2395811143974219	-0.04865830810924196	0.3623285706040708	2.18164587639048	-0.2237896129731567	0.1196456631056986	-0.74578370281705	2.159905595865303	2.159905595865309	-0.1745317837751657	0.1726621875659102	0.3517076442010962	0.1562212708411235	-0.7068499045211509	-0.01068158503236961	0.176857405646922	0.0008857176621492584	-0.02823051143545129	-0.02357842815699221	1.239397540243203	-0.577673574848674	-0.5776735748487249	0.1734718426070007	0.03934785888733904	0.1078706565112527	0.001679485805430226	-0.4312027937481961	-0.06023975040044158	0.00903299239924055	-0.6321722398473214	0.1605319389839079	-0.04444381979961073	0.4846218912654908	-0.02468550581638924	-17.10147349638249	-29.93750248285237	13.92288694757914	-26.33919238857267	-973.9437213871241	79.7209900865402	-12.15958507637931	0.3229334606618025	3.405762523336502	0.376587828296609	-7.113772790085386	94.1716155689811	18.21999118693425	-12.04134086513385	-12.04134086513453	94.17919527837192	58.35506168054164	0.4780508525771486	-13.66949395435977	-4.427833837001931e-05	-3.408049130549608e-05	-5.431312926855907e-05	-3.491525200506103e-05	-2.812128750570368e-05	3.255459286242415e-05	-0.0003675740084603647
1.53	-0.2473066433450849	-0.04875216442733512	0.3642677582844784	2.181656266831241	-0.2242079286159798	0.1220608246180669	-0.7324246982487636	2.153567108658464	2.153567108658467	-0.170108631665656	0.1745313801019029	0.3528847174704532	0.1559961188605577	-0.843501694059268	-0.008268438211025348	0.2106989371688854	0.001113494368639212	-0.03433750599550187	0.3078308867599261	1.438719576196479	-0.6878907396117135	-0.6878907396117511	0.5131183264411789	0.1995253943691642	0.1345247353422352	-0.004091737048392954	-0.4383800878033347	-0.05376012352887876	-0.02284380045751615	-0.6393033679343496	0.163077380173388	-0.02959304420034	0.4926856781211906	-0.02291613890382943	-15.3174564737023	-20.94091861684974	9.937082915909388	-36.16687746591275	-985.6449991219158	104.7028873912752	-15.23810755250146	0.1586287859091609	3.353595116820313	-0.1961711764136247	5.812940066210328	-27.18638228790104	21.73574021688247	-10.17301941399645	-10.17301941399394	-25.86478608586055	-25.37297998951126	4.773871704515051	12.37725252422802	-7.704005709972479e-05	-0.0001078747348483695	-2.582524618223737e-06	3.063016019475664e-05	-5.885787530210846e-05	8.4382139739989e-05	-5.23779230256373e-05
1.54	-0.2565627165201239	-0.04883026457860715	0.3665414106101444	2.181660526285419	-0.2240528936333684	0.1218276849314149	-0.7168829872374728	2.146194226777574	2.146194226777574	-0.1682334469221647	0.1739579320984172	0.3545312885893515	0.1569948924464779	-1.012958749996328	-0.007530351668143812	0.2437503346986104	-0.0003404796544235499	0.08643961365145647	-0.5532386679610847	1.675938828844082	-0.7845525096590512	-0.7845525096590688	-0.3361216305966956	-0.4491802490095788	0.2017702264194679	0.2464645991026488	-0.4455573818584737	-0.0472804966573158	-0.05472059331427331	-0.6464344960213779	0.1656228213628682	-0.01474226860106899	0.5007494649768901	-0.0215383491460549	-13.60419998714266	-12.21777452655133	6.291332943880044	-45.61798193845159	-997.5875479640015	128.4908068165428	-18.72063835616787	-0.01207859503074318	3.247735724888816	0.04023768238604417	18.26305005131637	-144.3241583586045	25.79943452579937	-9.330261921993491	-9.330261921992818	-143.5980928960385	-103.4215740915718	8.596333301827174	37.59601784661319	-0.0002884657430797759	-0.0003556361763167614	-0.0001211876884666311	-6.511892265402659e-05	-0.0001862110899269554	0.0002854705792801618	-0.0008981620512292527
1.55	-0.2676300644261087	-0.04891076606018565	0.3691462796639009	2.181653770408564	-0.2221991002419404	0.1138158241824992	-0.6988324685065241	2.137806107852035	2.137806107852016	-0.1745321581440668	0.166351899566182	0.356965081954436	0.1613620104427757	-1.198225268058638	-0.007846209297996806	0.2759735404779767	0.0003788271015032764	0.2931926688545828	-0.6028912509554201	1.934538751088801	-0.896022889255944	-0.8960228892559428	-0.5214413653170512	-0.8964441593628639	0.2856789787100228	0.6334373798410344	-0.4556720463740103	-0.04258440348622931	0.02138926307427966	-0.6544091945314232	0.1656731660309883	-0.007022492382296179	0.5031499988268797	-0.02215653893962115	-12.93919695566502	-8.597843752858484	5.543558420366764	-41.57329275030822	-993.5146211641221	136.3547105286032	-18.34037299613251	-0.04427488924412587	3.195280811834693	0.06589238293326215	23.18350250457849	131.5654007700826	25.94634613528137	-12.31065518821434	-12.31065518821209	104.5197351819737	10.75916671385034	8.192590675621076	40.08809119361389	-0.0007057433913265183	-0.0008038380849601963	-0.0004360492812374919	-0.000346707315015318	-0.000424883461549784	0.0006585335255837649	-0.003081597295146537
1.56	-0.2805322204056908	-0.04899501322651899	0.372070514336926	2.181649830641409	-0.2180173624485276	0.1186776794116263	-0.6781847355408338	2.128252239288592	2.128252239288555	-0.1705803369247694	0.1595008211746254	0.3602188517390163	0.1697668928476899	-1.379920364715745	-0.008279488619111335	0.307623458552309	0.0002227422869207513	0.5520284940484191	2.021504527647473	2.195381675792448	-1.017702437239924	-1.017702437239913	1.713984857642906	-0.2981894208738627	0.365765510318635	1.054017480825928	-0.465786710889547	-0.03788831031514278	0.09749911946283231	-0.6623838930414685	0.1657235106991084	0.0006972838364766918	0.5055505326768691	-0.02249633982640279	-12.16434317328381	-4.581032374163763	4.297976441447809	-38.94010849183891	-988.4901066099972	149.6016735926676	-18.00635407512705	-0.03556293328305116	3.133078183882025	-0.1348406317158045	28.67960404945837	390.4855139608408	26.2480350175849	-11.3720955994109	-11.37209559941203	340.5510986400237	105.6821556768852	7.831889165438599	44.31748189591476	-0.0004870573039043532	-0.0005548341308751261	-0.0003251070594864517	-0.0002723055895968563	-0.0002973068003918376	0.000454155636857576	-0.00228989697406774
1.57	-0.2951974921486532	-0.04907101127782487	0.3752991449429848	2.181649195429322	-0.2112159874092157	0.1562009544265538	-0.6549346397702428	2.11777311410631	2.1177731141063	-0.138271430502738	0.1608838689714107	0.3642277531282514	0.1823164770461729	-1.553819126851383	-0.007335231465814001	0.3394595524559703	-0.001336281679311933	0.7947611209403375	5.235006301414198	2.454592880188278	-1.058740571158014	-1.058740571158011	4.534562977813972	0.477959403654541	0.4303353819680619	1.437772979883049	-0.4694178115402782	-0.04415893390990725	0.07158330499789521	-0.6569644542542395	0.1594652308439151	-0.01030789863796054	0.5046245706874671	-0.02214776892582316	-15.20145875035122	-10.45794682516643	5.882197255311374	-40.57536008511357	-987.0705002140312	146.5470983881176	-16.89362709226758	0.2221781060625854	3.211352896579001	-0.05032571008988515	20.0728450794653	249.6681502653772	25.75097342995775	2.215592961141506	2.215592961141043	220.6179725554528	49.26955427606902	5.148276081091235	32.83077369098595	0.0005265834531039381	0.0005656771516205669	0.0003180899304169595	0.0002470837830462926	0.0002880811517420727	-0.0004720232956558452	0.002220722803256122
1.58	-0.3115641494748692	-0.04912501514431248	0.3788466320686743	2.18165619149136	-0.2023867354869033	0.2184363754153064	-0.6290937698998182	2.107420660634678	2.107420660634693	-0.08419538210903503	0.1671660667005303	0.36875810121726	0.1981888541913021	-1.720197481366438	-0.003880651655457765	0.3713947624784641	0.001748997113939911	0.957603870648526	6.963933722412498	2.713536495759134	-0.9923680951101221	-0.9923680951101215	6.067413251977241	0.6816405655929911	0.4700548502733492	1.718576070155177	-0.4730489121910089	-0.0504295575046716	0.04566749053295747	-0.6515450154670107	0.1532069509887216	-0.02131308111239757	0.5036986086980655	-0.02197224381645807	-18.22661087056673	-15.97305110962936	6.995366517658638	-43.00295737922549	-983.4569900259143	148.3119136099732	-16.50227255101032	0.4665015981287292	3.152901407648528	0.7940199201810935	12.70162861271244	93.57064340715601	26.19451725258986	10.1100263937854	10.1100263937853	83.00552943846434	-8.811376841105405	2.861808496610698	23.72700013891604	0.0006362226881953465	0.0006746737652843271	0.0004506696208867818	0.0003838995111665434	0.000372059064358429	-0.0005797261050675474	0.003075433062289338
